<?xml version="1.0" encoding="utf-8"?>
<!-- Generator: Adobe Illustrator 21.1.0, SVG Export Plug-In . SVG Version: 6.00 Build 0)  -->
<svg version="1.1" id="Layer_1" xmlns="http://www.w3.org/2000/svg" xmlns:xlink="http://www.w3.org/1999/xlink" x="0px" y="0px"
	 viewBox="0 0 546.7 125" style="enable-background:new 0 0 546.7 125;" xml:space="preserve">
<style type="text/css">
	.st0{fill:#3D5970;}
</style>
<g>
	<path class="st0" d="M161.2,41.2c5.1,0,9.1,1.9,11.9,5.6s4.3,8.9,4.3,15.6c0,6.7-1.4,11.9-4.3,15.7c-2.9,3.7-6.9,5.6-12,5.6
		c-5.2,0-9.2-1.9-12.1-5.6h-0.6l-1.6,4.9h-6.5V25.2h8.7v13.7c0,1,0,2.5-0.1,4.5c-0.1,2-0.2,3.3-0.2,3.8h0.4
		C151.8,43.2,155.9,41.2,161.2,41.2z M159,48.3c-3.5,0-6,1-7.6,3.1s-2.3,5.5-2.4,10.3v0.6c0,5,0.8,8.6,2.4,10.8
		c1.6,2.2,4.2,3.4,7.7,3.4c3.1,0,5.4-1.2,7-3.7c1.6-2.4,2.4-6,2.4-10.6C168.5,52.9,165.3,48.3,159,48.3z"/>
	<path class="st0" d="M223.9,62.3c0,6.7-1.7,11.9-5.1,15.7c-3.4,3.8-8.2,5.6-14.3,5.6c-3.8,0-7.2-0.9-10.1-2.6
		c-2.9-1.7-5.2-4.2-6.8-7.4c-1.6-3.2-2.4-7-2.4-11.3c0-6.6,1.7-11.8,5.1-15.6c3.4-3.7,8.2-5.6,14.4-5.6c5.9,0,10.6,1.9,14.1,5.7
		C222.1,50.7,223.9,55.8,223.9,62.3z M194.1,62.3c0,9.5,3.5,14.2,10.5,14.2c6.9,0,10.4-4.7,10.4-14.2c0-9.4-3.5-14-10.4-14
		c-3.7,0-6.3,1.2-7.9,3.6C194.9,54.3,194.1,57.8,194.1,62.3z"/>
	<path class="st0" d="M233.4,31.1c0-1.6,0.4-2.8,1.3-3.6c0.9-0.8,2.1-1.3,3.6-1.3c1.5,0,2.7,0.4,3.6,1.3c0.9,0.8,1.3,2,1.3,3.6
		c0,1.5-0.4,2.6-1.3,3.5s-2,1.3-3.6,1.3c-1.6,0-2.8-0.4-3.6-1.3C233.8,33.7,233.4,32.5,233.4,31.1z M242.6,82.9h-8.7V41.9h8.7V82.9z
		"/>
	<path class="st0" d="M263.7,82.9H255V25.2h8.7V82.9z"/>
	<path class="st0" d="M294,83.6c-6.4,0-11.3-1.9-14.9-5.6c-3.6-3.7-5.4-8.8-5.4-15.3c0-6.7,1.7-11.9,5-15.8
		c3.3-3.8,7.9-5.7,13.7-5.7c5.4,0,9.7,1.6,12.8,4.9c3.1,3.3,4.7,7.8,4.7,13.6v4.7h-27.3c0.1,4,1.2,7,3.2,9.2c2,2.1,4.9,3.2,8.6,3.2
		c2.4,0,4.7-0.2,6.8-0.7c2.1-0.5,4.3-1.2,6.7-2.3v7.1c-2.1,1-4.3,1.7-6.4,2.1C299.3,83.4,296.8,83.6,294,83.6z M292.4,47.8
		c-2.8,0-5,0.9-6.6,2.6c-1.7,1.8-2.7,4.3-3,7.7h18.6c0-3.4-0.9-5.9-2.4-7.7C297.4,48.6,295.2,47.8,292.4,47.8z"/>
	<path class="st0" d="M340.6,41.2c1.8,0,3.2,0.1,4.3,0.4l-0.9,8.1c-1.2-0.3-2.5-0.4-3.9-0.4c-3.5,0-6.3,1.1-8.5,3.4
		c-2.2,2.3-3.2,5.2-3.2,8.8v21.4h-8.7V41.9h6.8l1.1,7.2h0.4c1.4-2.4,3.1-4.4,5.3-5.8C335.7,41.9,338.1,41.2,340.6,41.2z"/>
	<path class="st0" d="M373.3,83.6c-5.2,0-9.2-1.9-12.1-5.6h-0.5c0.3,3.5,0.5,5.6,0.5,6.3v16.8h-8.7V41.9h7c0.2,0.8,0.6,2.6,1.2,5.5
		h0.4c2.7-4.1,6.8-6.2,12.2-6.2c5.1,0,9.1,1.9,11.9,5.6s4.3,8.9,4.3,15.6c0,6.7-1.5,11.9-4.4,15.7S378.4,83.6,373.3,83.6z
		 M371.2,48.3c-3.5,0-6,1-7.6,3c-1.6,2-2.4,5.3-2.4,9.7v1.3c0,5,0.8,8.6,2.4,10.8c1.6,2.2,4.2,3.4,7.7,3.4c3,0,5.3-1.2,7-3.7
		s2.4-6,2.4-10.6c0-4.6-0.8-8.1-2.4-10.4C376.7,49.4,374.3,48.3,371.2,48.3z"/>
	<path class="st0" d="M408.5,82.9h-8.7V25.2h8.7V82.9z"/>
	<path class="st0" d="M446.5,82.9l-1.7-5.7h-0.3c-2,2.5-4,4.2-6,5.1c-2,0.9-4.6,1.4-7.7,1.4c-4,0-7.2-1.1-9.4-3.3
		c-2.3-2.2-3.4-5.2-3.4-9.2c0-4.2,1.6-7.4,4.7-9.6s7.9-3.3,14.3-3.5l7.1-0.2v-2.2c0-2.6-0.6-4.6-1.8-5.9c-1.2-1.3-3.1-1.9-5.7-1.9
		c-2.1,0-4.1,0.3-6,0.9c-1.9,0.6-3.8,1.3-5.6,2.2l-2.8-6.2c2.2-1.2,4.7-2,7.3-2.6c2.6-0.6,5.1-0.9,7.5-0.9c5.2,0,9.1,1.1,11.8,3.4
		c2.7,2.3,4,5.8,4,10.7v27.6H446.5z M433.6,76.9c3.2,0,5.7-0.9,7.6-2.6c1.9-1.8,2.9-4.2,2.9-7.4v-3.6l-5.3,0.2
		c-4.1,0.1-7.1,0.8-8.9,2.1c-1.9,1.2-2.8,3.1-2.8,5.6c0,1.8,0.5,3.2,1.6,4.2C429.8,76.4,431.4,76.9,433.6,76.9z"/>
	<path class="st0" d="M480.2,76.6c2.1,0,4.2-0.3,6.4-1v6.6c-1,0.4-2.2,0.8-3.7,1.1c-1.5,0.3-3.1,0.4-4.7,0.4
		c-8.2,0-12.4-4.3-12.4-13V48.5h-5.6v-3.9l6-3.2l3-8.7h5.4v9.1h11.7v6.6h-11.7v21.9c0,2.1,0.5,3.6,1.6,4.6
		C477.1,76.1,478.5,76.6,480.2,76.6z"/>
	<path class="st0" d="M512.6,83.6c-6.4,0-11.3-1.9-14.9-5.6c-3.6-3.7-5.4-8.8-5.4-15.3c0-6.7,1.7-11.9,5-15.8
		c3.3-3.8,7.9-5.7,13.7-5.7c5.4,0,9.7,1.6,12.8,4.9c3.1,3.3,4.7,7.8,4.7,13.6v4.7h-27.3c0.1,4,1.2,7,3.2,9.2c2,2.1,4.9,3.2,8.6,3.2
		c2.4,0,4.7-0.2,6.8-0.7c2.1-0.5,4.3-1.2,6.7-2.3v7.1c-2.1,1-4.3,1.7-6.4,2.1C517.9,83.4,515.4,83.6,512.6,83.6z M511,47.8
		c-2.8,0-5,0.9-6.6,2.6c-1.7,1.8-2.7,4.3-3,7.7H520c0-3.4-0.9-5.9-2.4-7.7C515.9,48.6,513.8,47.8,511,47.8z"/>
</g>
<g>
	<g>
		<path d="M59.4,78.1l-4-14.5c-0.5-1.5-1.4-5.1-2.6-10.7h-0.3c-1.1,5.1-1.9,8.6-2.6,10.8l-4.1,14.4h-7.3L29.8,47h6.7l4,15.3
			c0.9,3.8,1.5,7,1.9,9.7h0.2c0.2-1.4,0.5-2.9,0.9-4.7c0.4-1.8,0.7-3.1,1-4L49.1,47h7.2L61,63.3c0.3,0.9,0.6,2.3,1.1,4.2
			c0.4,1.9,0.7,3.4,0.7,4.4H63c0.3-2.3,0.9-5.5,2-9.7L69,47h6.6l-8.8,31.1H59.4z"/>
		<path d="M96.7,78.6c-3.9,0-7-1.4-9.2-4.2h-0.4c0.3,2.6,0.4,4.2,0.4,4.8v12.7h-6.6V47h5.3c0.1,0.6,0.5,2,0.9,4.2h0.3
			c2.1-3.1,5.2-4.7,9.3-4.7c3.9,0,6.9,1.4,9.1,4.2c2.2,2.8,3.2,6.8,3.2,11.8c0,5.1-1.1,9-3.3,11.9C103.6,77.2,100.6,78.6,96.7,78.6z
			 M95.1,51.8c-2.6,0-4.5,0.8-5.7,2.3c-1.2,1.5-1.8,4-1.8,7.4v1c0,3.8,0.6,6.5,1.8,8.2c1.2,1.7,3.2,2.5,5.9,2.5c2.3,0,4-0.9,5.3-2.8
			s1.9-4.5,1.9-8c0-3.5-0.6-6.1-1.8-7.9C99.3,52.7,97.5,51.8,95.1,51.8z"/>
	</g>
	<path class="st0" d="M69.4,119.8c-31.2,0-56.6-25.4-56.6-56.6S38.2,6.5,69.4,6.5s56.6,25.4,56.6,56.6S100.7,119.8,69.4,119.8z
		 M69.4,15.7c-26.2,0-47.5,21.3-47.5,47.5s21.3,47.5,47.5,47.5s47.5-21.3,47.5-47.5S95.6,15.7,69.4,15.7z"/>
</g>
</svg>
